<svg width="180" height="180" viewBox="0 0 180 180" fill="none" xmlns="http://www.w3.org/2000/svg">
<g clip-path="url(#clip0_11_44)">
<g clip-path="url(#clip1_11_44)">
<mask id="mask0_11_44" style="mask-type:alpha" maskUnits="userSpaceOnUse" x="26" y="116" width="129" height="65">
<rect x="26" y="116.518" width="128.571" height="64.2857" fill="#FF00FF"/>
</mask>
<g mask="url(#mask0_11_44)">
<path d="M29.4016 2.52796L27.2053 -0.642757V3.21429V178.393V179.598H28.4107H149.75H152.051L150.741 177.707L29.4016 2.52796Z" fill="#47AE85" stroke="#E5EEF0" stroke-width="2.41071" stroke-miterlimit="3.8637"/>
</g>
<path d="M139.304 78.75C139.304 99.6485 123.083 118.915 100.359 133.071C78.2118 146.867 50.3447 155.501 26.8036 155.88V155.851V155.8V155.749V155.698V155.645V155.592V155.538V155.483V155.428V155.372V155.315V155.258V155.2V155.141V155.081V155.021V154.96V154.898V154.835V154.772V154.708V154.644V154.579V154.513V154.446V154.378V154.31V154.242V154.172V154.102V154.031V153.96V153.887V153.814V153.741V153.666V153.591V153.516V153.439V153.362V153.285V153.206V153.127V153.047V152.967V152.886V152.804V152.721V152.638V152.555V152.47V152.385V152.299V152.213V152.125V152.038V151.949V151.86V151.77V151.68V151.589V151.497V151.405V151.311V151.218V151.123V151.028V150.933V150.836V150.739V150.642V150.543V150.445V150.345V150.245V150.144V150.043V149.94V149.838V149.734V149.63V149.526V149.421V149.315V149.208V149.101V148.993V148.885V148.776V148.666V148.556V148.445V148.333V148.221V148.109V147.995V147.881V147.767V147.652V147.536V147.419V147.302V147.185V147.067V146.948V146.828V146.708V146.588V146.466V146.345V146.222V146.099V145.975V145.851V145.726V145.601V145.475V145.349V145.221V145.094V144.965V144.836V144.707V144.577V144.446V144.315V144.183V144.051V143.918V143.784V143.65V143.515V143.38V143.244V143.108V142.971V142.834V142.695V142.557V142.418V142.278V142.137V141.997V141.855V141.713V141.571V141.428V141.284V141.14V140.995V140.85V140.704V140.557V140.41V140.263V140.115V139.966V139.817V139.668V139.517V139.367V139.215V139.064V138.911V138.758V138.605V138.451V138.297V138.142V137.986V137.83V137.674V137.517V137.359V137.201V137.042V136.883V136.723V136.563V136.403V136.241V136.08V135.917V135.755V135.591V135.428V135.263V135.099V134.933V134.768V134.601V134.435V134.267V134.1V133.931V133.763V133.593V133.424V133.254V133.083V132.912V132.74V132.568V132.395V132.222V132.048V131.874V131.7V131.525V131.349V131.173V130.997V130.82V130.642V130.464V130.286V130.107V129.928V129.748V129.568V129.387V129.206V129.024V128.842V128.66V128.477V128.293V128.109V127.925V127.74V127.555V127.369V127.183V126.996V126.809V126.622V126.434V126.246V126.057V125.867V125.678V125.488V125.297V125.106V124.914V124.722V124.53V124.337V124.144V123.951V123.757V123.562V123.367V123.172V122.976V122.78V122.583V122.386V122.189V121.991V121.793V121.594V121.395V121.195V120.996V120.795V120.594V120.393V120.192V119.99V119.787V119.585V119.382V119.178V118.974V118.77V118.565V118.36V118.154V117.948V117.742V117.535V117.328V117.121V116.913V116.705V116.496V116.287V116.078V115.868V115.658V115.447V115.236V115.025V114.813V114.601V114.389V114.176V113.963V113.749V113.535V113.321V113.106V112.891V112.676V112.46V112.244V112.028V111.811V111.594V111.376V111.159V110.94V110.722V110.503V110.284V110.064V109.844V109.624V109.403V109.182V108.961V108.739V108.517V108.295V108.072V107.849V107.626V107.402V107.178V106.954V106.729V106.504V106.279V106.053V105.827V105.601V105.374V105.147V104.92V104.692V104.464V104.236V104.007V103.779V103.549V103.32V103.09V102.86V102.63V102.399V102.168V101.937V101.705V101.473V101.241V101.008V100.775V100.542V100.309V100.075V99.841V99.6067V99.3721V99.1373V98.9021V98.6666V98.4309V98.1948V97.9585V97.7219V97.485V97.2478V97.0104V96.7727V96.5347V96.2964V96.0579V95.819V95.5799V95.3406V95.1009V94.861V94.6209V94.3804V94.1397V93.8988V93.6576V93.4161V93.1743V92.9323V92.6901V92.4475V92.2048V91.9617V91.7185V91.4749V91.2312V90.9871V90.7429V90.4983V90.2536V90.0085V89.7633V89.5178V89.2721V89.0261V88.7799V88.5334V88.2867V88.0398V87.7927V87.5453V87.2977V87.0498V86.8017V86.5534V86.3049V86.0562V85.8072V85.558V85.3086V85.0589V84.8091V84.559V84.3087V84.0582V83.8075V83.5565V83.3054V83.054V82.8025V82.5507V82.2987V82.0465V81.7941V81.5415V81.2888V81.0358V80.7826V80.5292V80.2756V80.0218V79.7678V79.5137V79.2593V79.0047V78.75V78.4953V78.2407V77.9863V77.7322V77.4782V77.2244V76.9708V76.7174V76.4642V76.2112V75.9585V75.7059V75.4535V75.2013V74.9493V74.6975V74.446V74.1946V73.9435V73.6925V73.4418V73.1913V72.941V72.6909V72.4411V72.1914V71.942V71.6928V71.4439V71.1951V70.9466V70.6983V70.4502V70.2023V69.9547V69.7073V69.4602V69.2133V68.9666V68.7201V68.4739V68.2279V67.9822V67.7367V67.4915V67.2464V67.0017V66.7571V66.5129V66.2688V66.0251V65.7815V65.5383V65.2952V65.0525V64.8099V64.5677V64.3257V64.0839V63.8424V63.6012V63.3603V63.1196V62.8791V62.639V62.3991V62.1594V61.9201V61.681V61.4421V61.2036V60.9653V60.7273V60.4896V60.2522V60.015V59.7781V59.5415V59.3052V59.0691V58.8334V58.5979V58.3628V58.1279V57.8933V57.659V57.4249V57.1912V56.9578V56.7247V56.4918V56.2593V56.0271V55.7951V55.5635V55.3322V55.1011V54.8704V54.64V54.4099V54.1801V53.9506V53.7214V53.4926V53.264V53.0358V52.8079V52.5803V52.353V52.1261V51.8994V51.6731V51.4471V51.2215V50.9961V50.7711V50.5464V50.3221V50.098V49.8744V49.651V49.428V49.2053V48.9829V48.7609V48.5393V48.3179V48.0969V47.8763V47.656V47.436V47.2164V46.9972V46.7783V46.5597V46.3415V46.1236V45.9061V45.689V45.4722V45.2558V45.0397V44.824V44.6086V44.3936V44.179V43.9647V43.7508V43.5373V43.3242V43.1114V42.8989V42.6869V42.4752V42.2639V42.053V41.8424V41.6323V41.4225V41.2131V41.004V40.7954V40.5871V40.3793V40.1718V39.9647V39.758V39.5516V39.3457V39.1402V38.935V38.7303V38.5259V38.322V38.1184V37.9153V37.7125V37.5102V37.3082V37.1067V36.9055V36.7048V36.5045V36.3046V36.105V35.906V35.7073V35.509V35.3112V35.1137V34.9167V34.7201V34.524V34.3282V34.1329V33.938V33.7435V33.5494V33.3558V33.1626V32.9698V32.7775V32.5856V32.3941V32.2031V32.0125V31.8223V31.6326V31.4433V31.2545V31.0661V30.8781V30.6906V30.5036V30.3169V30.1308V29.9451V29.7598V29.575V29.3906V29.2067V29.0232V28.8402V28.6577V28.4756V28.294V28.1128V27.9321V27.7519V27.5721V27.3928V27.214V27.0356V26.8577V26.6803V26.5033V26.3269V26.1509V25.9753V25.8003V25.6257V25.4516V25.278V25.1049V24.9322V24.7601V24.5884V24.4172V24.2465V24.0763V23.9066V23.7373V23.5686V23.4003V23.2326V23.0653V22.8986V22.7323V22.5666V22.4013V22.2366V22.0723V21.9086V21.7453V21.5826V21.4204V21.2587V21.0975V20.9368V20.7766V20.617V20.4578V20.2992V20.1411V19.9835V19.8264V19.6699V19.5139V19.3584V19.2034V19.0489V18.895V18.7416V18.5888V18.4365V18.2847V18.1334V17.9827V17.8325V17.6828V17.5337V17.3851V17.2371V17.0896V16.9427V16.7963V16.6504V16.5051V16.3604V16.2162V16.0725V15.9294V15.7868V15.6448V15.5034V15.3625V15.2222V15.0824V14.9432V14.8046V14.6665V14.529V14.392V14.2556V14.1198V13.9845V13.8499V13.7158V13.5822V13.4493V13.3169V13.1851V13.0538V12.9232V12.7931V12.6636V12.5347V12.4064V12.2786V12.1515V12.0249V11.8989V11.7735V11.6487V11.5245V11.4009V11.2779V11.1555V11.0336V10.9124V10.7918V10.6717V10.5523V10.4335V10.3152V10.1976V10.0806V9.96421V9.84842V9.73323V9.61866V9.5047V9.39135V9.27862V9.1665V9.055V8.94412V8.83386V8.72422V8.6152V8.50681V8.39904V8.2919V8.18538V8.07949V7.97423V7.8696V7.7656V7.66224V7.55951V7.45742V7.35596V7.25514V7.15496V7.05542V6.95652V6.85826V6.76065V6.66368V6.56736V6.47169V6.37666V6.28229V6.18857V6.09549V6.00308V5.91131V5.82021V5.72976V5.63997V5.55083V5.46236V5.37455V5.28741V5.20093V5.11511V5.02996V4.94548V4.86167V4.77853V4.69606V4.61426V4.53314V4.45269V4.37292V4.29383V4.21542V4.13768V4.06063V3.98426V3.90858V3.83357V3.75926V3.68563V3.61269V3.54044V3.46889V3.39802V3.32785V3.25837V3.18959V3.1215V3.05412V2.98743V2.92144V2.85616V2.79158V2.7277V2.66453V2.60206V2.54031V2.47926V2.41892V2.35929V2.30038V2.24218V2.1847V2.12793V2.07188V2.01655V1.96194V1.90805V1.85488V1.80244V1.75072V1.69972V1.64946V1.62015C50.3447 1.99908 78.2118 10.6328 100.359 24.4295C123.083 38.5852 139.304 57.8515 139.304 78.75Z" fill="#FF7729" stroke="#E5EEF0" stroke-width="3.21429" stroke-miterlimit="3.8637"/>
<mask id="mask1_11_44" style="mask-type:alpha" maskUnits="userSpaceOnUse" x="28" y="3" width="122" height="176">
<path d="M28.4107 3.21429L149.75 178.393H28.4107V3.21429Z" fill="#FF00FF"/>
</mask>
<g mask="url(#mask1_11_44)">
<path d="M139.304 78.75C139.304 99.6485 123.083 118.915 100.359 133.071C78.2118 146.867 50.3447 155.501 26.8036 155.88V155.851V155.8V155.749V155.698V155.645V155.592V155.538V155.483V155.428V155.372V155.315V155.258V155.2V155.141V155.081V155.021V154.96V154.898V154.835V154.772V154.708V154.644V154.579V154.513V154.446V154.378V154.31V154.242V154.172V154.102V154.031V153.96V153.887V153.814V153.741V153.666V153.591V153.516V153.439V153.362V153.285V153.206V153.127V153.047V152.967V152.886V152.804V152.721V152.638V152.555V152.47V152.385V152.299V152.213V152.125V152.038V151.949V151.86V151.77V151.68V151.589V151.497V151.405V151.311V151.218V151.123V151.028V150.933V150.836V150.739V150.642V150.543V150.445V150.345V150.245V150.144V150.043V149.94V149.838V149.734V149.63V149.526V149.421V149.315V149.208V149.101V148.993V148.885V148.776V148.666V148.556V148.445V148.333V148.221V148.109V147.995V147.881V147.767V147.652V147.536V147.419V147.302V147.185V147.067V146.948V146.828V146.708V146.588V146.466V146.345V146.222V146.099V145.975V145.851V145.726V145.601V145.475V145.349V145.221V145.094V144.965V144.836V144.707V144.577V144.446V144.315V144.183V144.051V143.918V143.784V143.65V143.515V143.38V143.244V143.108V142.971V142.834V142.695V142.557V142.418V142.278V142.137V141.997V141.855V141.713V141.571V141.428V141.284V141.14V140.995V140.85V140.704V140.557V140.41V140.263V140.115V139.966V139.817V139.668V139.517V139.367V139.215V139.064V138.911V138.758V138.605V138.451V138.297V138.142V137.986V137.83V137.674V137.517V137.359V137.201V137.042V136.883V136.723V136.563V136.403V136.241V136.08V135.917V135.755V135.591V135.428V135.263V135.099V134.933V134.768V134.601V134.435V134.267V134.1V133.931V133.763V133.593V133.424V133.254V133.083V132.912V132.74V132.568V132.395V132.222V132.048V131.874V131.7V131.525V131.349V131.173V130.997V130.82V130.642V130.464V130.286V130.107V129.928V129.748V129.568V129.387V129.206V129.024V128.842V128.66V128.477V128.293V128.109V127.925V127.74V127.555V127.369V127.183V126.996V126.809V126.622V126.434V126.246V126.057V125.867V125.678V125.488V125.297V125.106V124.914V124.722V124.53V124.337V124.144V123.951V123.757V123.562V123.367V123.172V122.976V122.78V122.583V122.386V122.189V121.991V121.793V121.594V121.395V121.195V120.996V120.795V120.594V120.393V120.192V119.99V119.787V119.585V119.382V119.178V118.974V118.77V118.565V118.36V118.154V117.948V117.742V117.535V117.328V117.121V116.913V116.705V116.496V116.287V116.078V115.868V115.658V115.447V115.236V115.025V114.813V114.601V114.389V114.176V113.963V113.749V113.535V113.321V113.106V112.891V112.676V112.46V112.244V112.028V111.811V111.594V111.376V111.159V110.94V110.722V110.503V110.284V110.064V109.844V109.624V109.403V109.182V108.961V108.739V108.517V108.295V108.072V107.849V107.626V107.402V107.178V106.954V106.729V106.504V106.279V106.053V105.827V105.601V105.374V105.147V104.92V104.692V104.464V104.236V104.007V103.779V103.549V103.32V103.09V102.86V102.63V102.399V102.168V101.937V101.705V101.473V101.241V101.008V100.775V100.542V100.309V100.075V99.841V99.6067V99.3721V99.1373V98.9021V98.6666V98.4309V98.1948V97.9585V97.7219V97.485V97.2478V97.0104V96.7727V96.5347V96.2964V96.0579V95.819V95.5799V95.3406V95.1009V94.861V94.6209V94.3804V94.1397V93.8988V93.6576V93.4161V93.1743V92.9323V92.6901V92.4475V92.2048V91.9617V91.7185V91.4749V91.2312V90.9871V90.7429V90.4983V90.2536V90.0085V89.7633V89.5178V89.2721V89.0261V88.7799V88.5334V88.2867V88.0398V87.7927V87.5453V87.2977V87.0498V86.8017V86.5534V86.3049V86.0562V85.8072V85.558V85.3086V85.0589V84.8091V84.559V84.3087V84.0582V83.8075V83.5565V83.3054V83.054V82.8025V82.5507V82.2987V82.0465V81.7941V81.5415V81.2888V81.0358V80.7826V80.5292V80.2756V80.0218V79.7678V79.5137V79.2593V79.0047V78.75V78.4953V78.2407V77.9863V77.7322V77.4782V77.2244V76.9708V76.7174V76.4642V76.2112V75.9585V75.7059V75.4535V75.2013V74.9493V74.6975V74.446V74.1946V73.9435V73.6925V73.4418V73.1913V72.941V72.6909V72.4411V72.1914V71.942V71.6928V71.4439V71.1951V70.9466V70.6983V70.4502V70.2023V69.9547V69.7073V69.4602V69.2133V68.9666V68.7201V68.4739V68.2279V67.9822V67.7367V67.4915V67.2464V67.0017V66.7571V66.5129V66.2688V66.0251V65.7815V65.5383V65.2952V65.0525V64.8099V64.5677V64.3257V64.0839V63.8424V63.6012V63.3603V63.1196V62.8791V62.639V62.3991V62.1594V61.9201V61.681V61.4421V61.2036V60.9653V60.7273V60.4896V60.2522V60.015V59.7781V59.5415V59.3052V59.0691V58.8334V58.5979V58.3628V58.1279V57.8933V57.659V57.4249V57.1912V56.9578V56.7247V56.4918V56.2593V56.0271V55.7951V55.5635V55.3322V55.1011V54.8704V54.64V54.4099V54.1801V53.9506V53.7214V53.4926V53.264V53.0358V52.8079V52.5803V52.353V52.1261V51.8994V51.6731V51.4471V51.2215V50.9961V50.7711V50.5464V50.3221V50.098V49.8744V49.651V49.428V49.2053V48.9829V48.7609V48.5393V48.3179V48.0969V47.8763V47.656V47.436V47.2164V46.9972V46.7783V46.5597V46.3415V46.1236V45.9061V45.689V45.4722V45.2558V45.0397V44.824V44.6086V44.3936V44.179V43.9647V43.7508V43.5373V43.3242V43.1114V42.8989V42.6869V42.4752V42.2639V42.053V41.8424V41.6323V41.4225V41.2131V41.004V40.7954V40.5871V40.3793V40.1718V39.9647V39.758V39.5516V39.3457V39.1402V38.935V38.7303V38.5259V38.322V38.1184V37.9153V37.7125V37.5102V37.3082V37.1067V36.9055V36.7048V36.5045V36.3046V36.105V35.906V35.7073V35.509V35.3112V35.1137V34.9167V34.7201V34.524V34.3282V34.1329V33.938V33.7435V33.5494V33.3558V33.1626V32.9698V32.7775V32.5856V32.3941V32.2031V32.0125V31.8223V31.6326V31.4433V31.2545V31.0661V30.8781V30.6906V30.5036V30.3169V30.1308V29.9451V29.7598V29.575V29.3906V29.2067V29.0232V28.8402V28.6577V28.4756V28.294V28.1128V27.9321V27.7519V27.5721V27.3928V27.214V27.0356V26.8577V26.6803V26.5033V26.3269V26.1509V25.9753V25.8003V25.6257V25.4516V25.278V25.1049V24.9322V24.7601V24.5884V24.4172V24.2465V24.0763V23.9066V23.7373V23.5686V23.4003V23.2326V23.0653V22.8986V22.7323V22.5666V22.4013V22.2366V22.0723V21.9086V21.7453V21.5826V21.4204V21.2587V21.0975V20.9368V20.7766V20.617V20.4578V20.2992V20.1411V19.9835V19.8264V19.6699V19.5139V19.3584V19.2034V19.0489V18.895V18.7416V18.5888V18.4365V18.2847V18.1334V17.9827V17.8325V17.6828V17.5337V17.3851V17.2371V17.0896V16.9427V16.7963V16.6504V16.5051V16.3604V16.2162V16.0725V15.9294V15.7868V15.6448V15.5034V15.3625V15.2222V15.0824V14.9432V14.8046V14.6665V14.529V14.392V14.2556V14.1198V13.9845V13.8499V13.7158V13.5822V13.4493V13.3169V13.1851V13.0538V12.9232V12.7931V12.6636V12.5347V12.4064V12.2786V12.1515V12.0249V11.8989V11.7735V11.6487V11.5245V11.4009V11.2779V11.1555V11.0336V10.9124V10.7918V10.6717V10.5523V10.4335V10.3152V10.1976V10.0806V9.96421V9.84842V9.73323V9.61866V9.5047V9.39135V9.27862V9.1665V9.055V8.94412V8.83386V8.72422V8.6152V8.50681V8.39904V8.2919V8.18538V8.07949V7.97423V7.8696V7.7656V7.66224V7.55951V7.45742V7.35596V7.25514V7.15496V7.05542V6.95652V6.85826V6.76065V6.66368V6.56736V6.47169V6.37666V6.28229V6.18857V6.09549V6.00308V5.91131V5.82021V5.72976V5.63997V5.55083V5.46236V5.37455V5.28741V5.20093V5.11511V5.02996V4.94548V4.86167V4.77853V4.69606V4.61426V4.53314V4.45269V4.37292V4.29383V4.21542V4.13768V4.06063V3.98426V3.90858V3.83357V3.75926V3.68563V3.61269V3.54044V3.46889V3.39802V3.32785V3.25837V3.18959V3.1215V3.05412V2.98743V2.92144V2.85616V2.79158V2.7277V2.66453V2.60206V2.54031V2.47926V2.41892V2.35929V2.30038V2.24218V2.1847V2.12793V2.07188V2.01655V1.96194V1.90805V1.85488V1.80244V1.75072V1.69972V1.64946V1.62015C50.3447 1.99908 78.2118 10.6328 100.359 24.4295C123.083 38.5852 139.304 57.8515 139.304 78.75Z" fill="#1F6E81" stroke="#E5EEF0" stroke-width="3.21429" stroke-miterlimit="3.8637"/>
</g>
</g>
</g>
<defs>
<clipPath id="clip0_11_44">
<rect width="180" height="180" fill="white"/>
</clipPath>
<clipPath id="clip1_11_44">
<rect width="128.571" height="180.804" fill="white" transform="translate(26)"/>
</clipPath>
</defs>
</svg>
