<svg width="180" height="180" viewBox="0 0 180 180" fill="none" xmlns="http://www.w3.org/2000/svg">
<g clip-path="url(#clip0_82_77)">
<path d="M28 0L153.357 180.804H28V0Z" fill="#47AE85"/>
<path d="M142.911 78.75C142.911 122.242 76.0784 157.5 28 157.5C28 157.5 28 122.242 28 78.75C28 35.2576 28 0 28 0C76.0784 0 142.911 35.2576 142.911 78.75Z" fill="#FF7729"/>
<mask id="mask0_82_77" style="mask-type:alpha" maskUnits="userSpaceOnUse" x="28" y="0" width="126" height="181">
<path d="M28 0L153.357 180.804H28V0Z" fill="#FF00FF"/>
</mask>
<g mask="url(#mask0_82_77)">
<path d="M142.911 78.75C142.911 122.242 76.0784 157.5 28 157.5C28 157.5 28 122.242 28 78.75C28 35.2576 28 0 28 0C76.0784 0 142.911 35.2576 142.911 78.75Z" fill="#1F6E81"/>
</g>
</g>
<defs>
<clipPath id="clip0_82_77">
<rect width="124.679" height="180" fill="white" transform="translate(28)"/>
</clipPath>
</defs>
</svg>
